<?xml version="1.0" encoding="utf-8"?>
<!-- Generator: Adobe Illustrator 19.0.0, SVG Export Plug-In . SVG Version: 6.00 Build 0)  -->
<svg version="1.1" id="Layer_1" xmlns="http://www.w3.org/2000/svg" xmlns:xlink="http://www.w3.org/1999/xlink" x="0px" y="0px"
	 viewBox="0 0 641.5 124" style="enable-background:new 0 0 641.5 124;" xml:space="preserve">
<style type="text/css">
	.st0{fill:#3390C1;}
	.st1{opacity:0.5;}
	.st2{fill:#FFFFFF;}
</style>
<g id="XMLID_232_">
	<path id="XMLID_235_" class="st0" d="M156.9,81.4h-13.4L141,91.5l0.8,0.8h-16.7l1-0.8l16.4-64.7l-0.8-0.8h17.1l-0.9,0.8l16.6,64.7
		l0.8,0.8h-16.6l0.9-0.8L156.9,81.4z M150.1,46.8l-3.5,21.1h7.2l-3.5-21.1H150.1z"/>
	<path id="XMLID_249_" class="st0" d="M217,92.3h-32.8l0.8-0.7V25.9h14.5v51.9h16.7v13.7L217,92.3z"/>
	<path id="XMLID_277_" class="st0" d="M266.5,42.1c0,4-1.4,9.5-6.8,13c3.8,1.4,6.7,4.3,6.7,10.9V75c0,11.7-5.6,17.3-16.9,17.3h-22.1
		l0.8-0.8V26.7l-0.8-0.8h21.9C259.5,25.9,266.5,32.7,266.5,42.1z M242.6,49h6.7c3.1-0.9,4.4-9.5-0.5-9.5h-6.2V49z M251.9,75.8v-9.2
		c-0.1-1.5-1.4-2.7-2.8-2.7h-6.5v14.7h6.5C250.6,78.6,251.9,77.3,251.9,75.8z"/>
	<path id="XMLID_281_" class="st0" d="M308.9,25.9l0.7-0.8v16.1l-0.8-0.8h-15.2v11.4h13.9l0.8-0.8v16.2l-0.8-0.9h-13.9v11.5h16.6
		l0.8-0.8v16.1l-0.8-0.8h-31.9l0.8-0.8V25.9H308.9z"/>
	<path id="XMLID_283_" class="st0" d="M323.1,26.7l-0.8-0.8h22.6c9.5,0,17.4,5.4,17.4,16.6v13.1c0,5-1.5,10-6.8,12.9l8.8,22.9
		l0.8,0.8h-17l0.9-0.8L342.7,72h-5.1v19.5l0.9,0.8h-16.2l0.8-0.8V26.7z M337.6,58.8h7.3c1.6,0,2.9-1.3,2.9-2.8V42.6
		c0-1.5-1.3-2.8-2.9-2.8h-7.3V58.8z"/>
	<path id="XMLID_286_" class="st0" d="M411.6,25.9v13.9h-12.5v51.7l0.8,0.8h-16.1l0.8-0.8V39.9h-12.8V25.9H411.6z"/>
</g>
<g id="XMLID_234_">
	<path id="XMLID_236_" class="st0" d="M493.9,42.6c0,4-1.4,9.5-6.8,13c3.8,1.4,6.8,4.3,6.8,10.9v9.1c0,11.7-5.6,17.3-16.9,17.3
		h-22.1l0.8-0.8V27.2l-0.8-0.8h21.9C487,26.4,493.9,33.2,493.9,42.6z M470,49.5h6.8c3.1-0.9,4.4-9.5-0.5-9.5H470V49.5z M479.3,76.2
		V67c-0.1-1.5-1.3-2.7-2.8-2.7H470V79h6.5C478.1,79,479.3,77.7,479.3,76.2z"/>
	<path id="XMLID_240_" class="st0" d="M538.6,92.8h-32.8l0.8-0.7V26.4h14.5v51.9h16.7V92L538.6,92.8z"/>
	<path id="XMLID_242_" class="st0" d="M590.9,43.2v32.5c0,9.1-6.6,17.9-20.3,17.9c-13.5,0-20.7-8.8-20.7-17.9V43.2
		c0-9.1,6.2-17.8,20.7-17.8C584.6,25.4,590.9,34.1,590.9,43.2z M576.4,43.2c0-5.4-12.1-5.2-12.1,0v32.5c0,6,12.1,5.9,12.1,0V43.2z"
		/>
	<path id="XMLID_245_" class="st0" d="M640.9,80.9c-2.1,7.2-8.7,12.6-17.9,12.5c-11.5,0-19.3-6.4-19.3-17.5V43.7
		c0-9.5,4.5-17.5,17.3-17.5h16.3v14H621c-2.1,0-2.8,2-2.8,3.5v31.9c0,3.4,6.2,5.4,9.4,2.2V63.8h-5.1V51h18.4V80.9z"/>
</g>
<g id="XMLID_209_">
	<g id="XMLID_293_">
		<path id="XMLID_352_" class="st0" d="M14.8,109.5L1,94.3l91.5-83l13.8,15.2L14.8,109.5z M4.1,94.4l10.9,12l88.3-80l-10.9-12
			L4.1,94.4z"/>
	</g>
	<g id="XMLID_292_">
		
			<rect id="XMLID_351_" x="5.4" y="92.8" transform="matrix(0.6711 0.7414 -0.7414 0.6711 72.1485 24.0001)" class="st0" width="7.3" height="1.1"/>
	</g>
	<g id="XMLID_291_">
		
			<rect id="XMLID_350_" x="17" y="82.2" transform="matrix(0.6711 0.7414 -0.7414 0.6711 68.1569 11.8691)" class="st0" width="7.3" height="1.1"/>
	</g>
	<g id="XMLID_290_">
		
			<rect id="XMLID_349_" x="9.2" y="88.3" transform="matrix(0.6711 0.7414 -0.7414 0.6711 69.8086 20.2909)" class="st0" width="5.8" height="1.1"/>
	</g>
	<g id="XMLID_289_">
		
			<rect id="XMLID_348_" x="13" y="84.7" transform="matrix(0.6711 0.7414 -0.7414 0.6711 68.4727 16.2431)" class="st0" width="5.8" height="1.1"/>
	</g>
	<g id="XMLID_288_">
		
			<rect id="XMLID_347_" x="28.7" y="71.6" transform="matrix(0.6711 0.7414 -0.7414 0.6711 64.1619 -0.2653)" class="st0" width="7.3" height="1.1"/>
	</g>
	<g id="XMLID_233_">
		
			<rect id="XMLID_346_" x="20.8" y="77.7" transform="matrix(0.6711 0.7414 -0.7414 0.6711 65.8138 8.157)" class="st0" width="5.8" height="1.1"/>
	</g>
	<g id="XMLID_231_">
		
			<rect id="XMLID_345_" x="24.7" y="74.2" transform="matrix(0.6711 0.7414 -0.7414 0.6711 64.4821 4.1123)" class="st0" width="5.8" height="1.1"/>
	</g>
	<g id="XMLID_230_">
		
			<rect id="XMLID_344_" x="40.4" y="61.1" transform="matrix(0.6711 0.7414 -0.7414 0.6711 60.1634 -12.4002)" class="st0" width="7.3" height="1.1"/>
	</g>
	<g id="XMLID_229_">
		
			<rect id="XMLID_343_" x="32.5" y="67.1" transform="matrix(0.6711 0.7414 -0.7414 0.6711 61.8187 -3.9771)" class="st0" width="5.8" height="1.1"/>
	</g>
	<g id="XMLID_228_">
		
			<rect id="XMLID_342_" x="36.4" y="63.6" transform="matrix(0.6711 0.7414 -0.7414 0.6711 60.487 -8.022)" class="st0" width="5.8" height="1.1"/>
	</g>
	<g id="XMLID_227_">
		
			<rect id="XMLID_341_" x="52.1" y="50.5" transform="matrix(0.6711 0.7414 -0.7414 0.6711 56.1682 -24.5336)" class="st0" width="7.3" height="1.1"/>
	</g>
	<g id="XMLID_226_">
		
			<rect id="XMLID_340_" x="44.2" y="56.6" transform="matrix(0.6711 0.7414 -0.7414 0.6711 57.8236 -16.1112)" class="st0" width="5.8" height="1.1"/>
	</g>
	<g id="XMLID_225_">
		
			<rect id="XMLID_339_" x="48.1" y="53" transform="matrix(0.6711 0.7414 -0.7414 0.6711 56.4919 -20.1561)" class="st0" width="5.8" height="1.1"/>
	</g>
	<g id="XMLID_224_">
		
			<rect id="XMLID_338_" x="63.7" y="39.9" transform="matrix(0.6711 0.7414 -0.7414 0.6711 52.1769 -36.6676)" class="st0" width="7.3" height="1.1"/>
	</g>
	<g id="XMLID_221_">
		
			<rect id="XMLID_337_" x="55.9" y="46" transform="matrix(0.6711 0.7414 -0.7414 0.6711 53.8241 -28.2451)" class="st0" width="5.8" height="1.1"/>
	</g>
	<g id="XMLID_219_">
		
			<rect id="XMLID_336_" x="59.8" y="42.5" transform="matrix(0.6711 0.7414 -0.7414 0.6711 52.4972 -32.29)" class="st0" width="5.8" height="1.1"/>
	</g>
	<g id="XMLID_218_">
		
			<rect id="XMLID_335_" x="75.4" y="29.4" transform="matrix(0.6711 0.7414 -0.7414 0.6711 48.1819 -48.802)" class="st0" width="7.3" height="1.1"/>
	</g>
	<g id="XMLID_215_">
		
			<rect id="XMLID_334_" x="67.5" y="35.4" transform="matrix(0.6711 0.7414 -0.7414 0.6711 49.8338 -40.3794)" class="st0" width="5.8" height="1.1"/>
	</g>
	<g id="XMLID_214_">
		
			<rect id="XMLID_333_" x="71.4" y="31.9" transform="matrix(0.6711 0.7414 -0.7414 0.6711 48.5021 -44.424)" class="st0" width="5.8" height="1.1"/>
	</g>
	<g id="XMLID_213_">
		
			<rect id="XMLID_332_" x="87.1" y="18.8" transform="matrix(0.6711 0.7414 -0.7414 0.6711 44.1831 -60.9338)" class="st0" width="7.3" height="1.1"/>
	</g>
	<g id="XMLID_212_">
		
			<rect id="XMLID_331_" x="79.2" y="24.9" transform="matrix(0.6711 0.7414 -0.7414 0.6711 45.8387 -52.5135)" class="st0" width="5.8" height="1.1"/>
	</g>
	<g id="XMLID_211_">
		
			<rect id="XMLID_330_" x="83.1" y="21.3" transform="matrix(0.6711 0.7414 -0.7414 0.6711 44.507 -56.5583)" class="st0" width="5.8" height="1.1"/>
	</g>
	<g id="XMLID_210_" class="st1">
		
			<rect id="XMLID_322_" x="-4" y="61.5" transform="matrix(0.7414 -0.6711 0.6711 0.7414 -28.347 55.2473)" class="st0" width="122.9" height="5.8"/>
	</g>
</g>
<g id="XMLID_197_">
	<g id="XMLID_208_">
		<path id="XMLID_326_" class="st0" d="M99.9,107.8c-2.4,0-5.5-2.1-6.6-2.9C69.2,86.3,49.4,68.2,27.4,44.4l-0.7-0.7l6.1-6.7l0.8,0.6
			c24.8,19.7,44.5,37.8,65.9,60.5l0.1,0.1c1.1,1.5,4.7,6.4,2.5,8.7C101.5,107.5,100.8,107.8,99.9,107.8z M29.7,43.6
			c21.7,23.4,41.2,41.2,65,59.5c2.4,1.8,5.3,2.9,5.9,2.3c0.5-0.6-0.7-3.4-2.6-5.9C76.8,77.2,57.3,59.3,33,39.9L29.7,43.6z"/>
	</g>
	<g id="XMLID_207_">
		<path id="XMLID_323_" class="st0" d="M22.7,45.9c-2.6,0-5.1-1.1-7.3-3.1c-3-2.7-7-7.6-9.2-13C3.2,22.8,4,16.7,8.3,12l1.3-1.4
			l0.5,1.8c0,0,0.7,2.2,3.2,5.1c2.9,3.4,5.5,4.1,8.3,4.9c2.5,0.7,5.1,1.5,7.9,4.1c2.7,2.4,4.1,5.1,4.2,8c0.2,3.4-1.4,6.1-2.3,7l0,0
			c-2.1,2.3-4.7,3.8-7.4,4.2C23.7,45.9,23.2,45.9,22.7,45.9z M8.8,14.8c-2.7,3.9-3,8.6-0.7,14.2c2.1,5.1,6,9.8,8.7,12.3
			c2.2,2,4.5,2.8,7,2.4c2.1-0.3,4.3-1.6,6.1-3.5l0,0c0.5-0.5,1.9-2.7,1.7-5.4c-0.1-2.4-1.3-4.6-3.5-6.5c-2.5-2.2-4.7-2.9-7.1-3.6
			c-2.9-0.9-5.9-1.8-9.3-5.6C10.3,17.3,9.4,15.8,8.8,14.8z"/>
	</g>
	<g id="XMLID_206_" class="st1">
		<path id="XMLID_321_" class="st0" d="M25.4,43.4c5.1,1.8-3.4,3-8.6-1.8s-16.3-19.2-7-29.3c0,0-2.9,8.4,3.3,18.6
			C17.1,37.5,20.7,41.8,25.4,43.4z"/>
	</g>
	<g id="XMLID_205_" class="st1">
		<path id="XMLID_320_" class="st0" d="M27.8,26.2c-5.9-5.2-8.2-1.8-14-6.9c-3.2-2.8-4.6-6.6-4.6-6.6C-0.1,22.8,8.6,35,13.8,39.8
			c0,0,4.2,1.5,6.6-1.2s-1.5-7.7,0.6-10S27.8,26.2,27.8,26.2z"/>
	</g>
	<g id="XMLID_204_">
		
			<rect id="XMLID_329_" x="23" y="39.9" transform="matrix(0.6766 -0.7363 0.7363 0.6766 -20.3919 35.4838)" class="st0" width="14.4" height="2.2"/>
	</g>
	<g id="XMLID_203_" class="st1">
		
			<rect id="XMLID_319_" x="34" y="37.4" transform="matrix(0.6766 -0.7363 0.7363 0.6766 -22.7707 43.5343)" class="st0" width="8.4" height="20.6"/>
	</g>
	<g id="XMLID_202_" class="st1">
		<polygon id="XMLID_314_" class="st0" points="100.8,106.4 94.5,104.9 62.5,77.2 27.2,43.4 29,41.5 		"/>
	</g>
	<g id="XMLID_201_">
		
			<rect id="XMLID_318_" x="32.7" y="39.8" transform="matrix(0.7363 0.6767 -0.6767 0.7363 38.2963 -11.0247)" class="st0" width="1.1" height="7.6"/>
	</g>
	<g id="XMLID_200_">
		
			<rect id="XMLID_317_" x="36.6" y="43.4" transform="matrix(0.7363 0.6767 -0.6767 0.7363 41.728 -12.7077)" class="st0" width="1.1" height="7.6"/>
	</g>
	<g id="XMLID_199_">
		
			<rect id="XMLID_316_" x="40.5" y="46.9" transform="matrix(0.7363 0.6767 -0.6767 0.7363 45.1595 -14.3909)" class="st0" width="1.1" height="7.6"/>
	</g>
	<g id="XMLID_198_">
		
			<rect id="XMLID_315_" x="44.8" y="50.8" transform="matrix(0.7363 0.6767 -0.6767 0.7363 48.9341 -16.2423)" class="st0" width="1.1" height="7.6"/>
	</g>
</g>
<g id="XMLID_179_">
	<g id="XMLID_196_">
		<path id="XMLID_303_" class="st2" d="M62.5,101.3L54,120.9l-8.5-19.7V48.6V6.9c0,0,1.5-5.5,8.5-5.5s8.5,5.5,8.5,5.5v41.8V101.3z"
			/>
		<path id="XMLID_311_" class="st0" d="M54,123.7l-9.6-22.2V6.7l0-0.1c0.6-2.2,3.4-6.3,9.5-6.3s8.9,4.1,9.5,6.3l0,0.1v94.8L54,123.7
			z M46.6,101.1l7.4,17.1l7.4-17.1V7c-0.3-0.8-1.9-4.5-7.4-4.5c-5.5,0-7.1,3.8-7.4,4.5V101.1z"/>
	</g>
	<g id="XMLID_195_">
		<path id="XMLID_310_" class="st0" d="M54,20.5c-6.4,0-9.2-3.5-9.3-3.7l1.7-1.3c0.1,0.1,2.4,2.9,7.6,2.9c4.5,0,7.7-2.9,7.7-3
			l1.5,1.6C63.1,17.1,59.4,20.5,54,20.5z"/>
	</g>
	<g id="XMLID_194_">
		<path id="XMLID_309_" class="st0" d="M54,10.7c-6.1,0-8.8-3.3-8.9-3.5L46,6.5c0,0,2.5,3.1,8,3.1c4.7,0,8.1-3.1,8.1-3.1l0.8,0.8
			C62.7,7.4,59.2,10.7,54,10.7z"/>
	</g>
	<g id="XMLID_193_">
		<path id="XMLID_308_" class="st0" d="M54,25.4c-6.1,0-8.8-3.3-8.9-3.5l0.9-0.7c0,0,2.5,3.1,8,3.1c4.7,0,8.1-3.1,8.1-3.1l0.8,0.8
			C62.7,22.1,59.2,25.4,54,25.4z"/>
	</g>
	<g id="XMLID_192_">
		<path id="XMLID_307_" class="st0" d="M54,113c-3.1,0-4.4-1.7-4.5-1.8l0.9-0.7c0,0.1,1.1,1.4,3.6,1.4c2.1,0,3.6-1.4,3.7-1.4
			l0.8,0.8C58.3,111.4,56.6,113,54,113z"/>
	</g>
	<g id="XMLID_191_">
		<polygon id="XMLID_306_" class="st0" points="54,102 49.7,99 45.9,101.7 45.2,100.8 49.7,97.6 54,100.6 58.2,97.6 62.7,100.8 
			62.1,101.7 58.2,99 		"/>
	</g>
	<g id="XMLID_190_">
		<rect id="XMLID_305_" x="49.2" y="23.8" class="st0" width="1.1" height="74.5"/>
	</g>
	<g id="XMLID_189_">
		<rect id="XMLID_304_" x="57.8" y="24.1" class="st0" width="1.1" height="74.5"/>
	</g>
	<g id="XMLID_188_" class="st1">
		<rect id="XMLID_302_" x="47.7" y="18" class="st0" width="1.7" height="5.6"/>
	</g>
	<g id="XMLID_187_" class="st1">
		<rect id="XMLID_301_" x="50.5" y="19.1" class="st0" width="1.7" height="5.6"/>
	</g>
	<g id="XMLID_186_" class="st1">
		<rect id="XMLID_300_" x="53.2" y="19.1" class="st0" width="1.7" height="5.6"/>
	</g>
	<g id="XMLID_185_" class="st1">
		<rect id="XMLID_299_" x="55.9" y="18.6" class="st0" width="1.7" height="5.6"/>
	</g>
	<g id="XMLID_184_" class="st1">
		<rect id="XMLID_298_" x="58.6" y="18" class="st0" width="1.7" height="5.6"/>
	</g>
	<g id="XMLID_183_" class="st1">
		<polygon id="XMLID_297_" class="st0" points="61.8,16.5 54.1,19.3 46.4,16.5 46.4,10.5 46.4,4.4 54.1,1.7 61.8,4.4 61.8,10.5 		
			"/>
	</g>
	<g id="XMLID_182_" class="st1">
		<polygon id="XMLID_296_" class="st0" points="53.7,120.8 49.4,112.1 53.7,112.1 58,112.1 		"/>
	</g>
	<g id="XMLID_181_" class="st1">
		<polygon id="XMLID_295_" class="st0" points="58.5,98.6 54,100.7 49.8,98.6 45.5,100.2 45.5,56.2 45.5,22.5 52,24.7 58.5,24.7 
			58.5,56.2 		"/>
	</g>
	<g id="XMLID_180_" class="st1">
		<polygon id="XMLID_294_" class="st0" points="46.4,4.1 46.4,100.3 49.6,109.4 49.6,3.3 		"/>
	</g>
</g>
</svg>
